<?xml version="1.0" encoding="utf-8"?>
<!-- Generator: Adobe Illustrator 20.0.0, SVG Export Plug-In . SVG Version: 6.00 Build 0)  -->
<svg version="1.1" xmlns="http://www.w3.org/2000/svg" xmlns:xlink="http://www.w3.org/1999/xlink" x="0px" y="0px"
	 viewBox="0 0 1024 1024" style="enable-background:new 0 0 1024 1024;" xml:space="preserve">
<style type="text/css">
	.st0{display:none;}
	.st1{display:inline;fill:none;stroke:#000000;stroke-miterlimit:10;}
	.st2{fill:none;stroke:#000000;stroke-width:10;stroke-linecap:round;stroke-linejoin:round;stroke-miterlimit:10;}
	.st3{font-family:'MyriadPro-Regular';}
	.st4{font-size:28px;}
	.st5{fill:none;stroke:#000000;stroke-miterlimit:10;}
</style>
<g id="Layer_1" class="st0">
	<polygon class="st1" points="336.1,754.5 227.4,419 512,211.7 796.6,419.2 687.9,754.5 	"/>
</g>
<g id="Layer_9">
	<path class="st2" d="M512,212c133.2,0,246.1,86.8,285.3,206.8"/>
	<path class="st2" d="M226.8,418.8C265.9,298.8,378.8,212,512,212"/>
	<path class="st2" d="M797.3,418.8c9.6,29.3,14.7,60.6,14.7,93.2c0,99.9-48.8,188.3-123.8,242.8"/>
	<path class="st2" d="M688.2,754.8C638.7,790.8,577.8,812,512,812c-65.8,0-126.6-21.2-176.1-57.1"/>
	<path class="st2" d="M335.9,754.9C260.8,700.4,212,611.9,212,512c0-32.5,5.2-63.8,14.8-93.2"/>
</g>
<g id="Layer_4">
	<path class="st2" d="M379,554.3c-63.7-28.1-116.9-75.8-151.9-135.4"/>
	<path class="st2" d="M645,554.3c-26,11.5-53.8,19.7-82.8,24.1"/>
	<path class="st2" d="M796.8,418.9c-35,59.6-88.1,107.3-151.8,135.4"/>
	<path class="st2" d="M562.2,578.4c-16.4,2.5-33.1,3.8-50.2,3.8c-17.5,0-34.7-1.4-51.5-4"/>
	<path class="st2" d="M460.5,578.2c-28.6-4.5-55.9-12.6-81.5-23.9"/>
</g>
<g id="Layer_5">
	<path class="st2" d="M428.7,398.5c7.2-71.4,37.2-136.1,82.6-186.7"/>
	<path class="st2" d="M431.5,486.5c-2.9-17.7-4.4-35.8-4.4-54.3c0-11.4,0.6-22.6,1.7-33.6"/>
	<path class="st2" d="M461.5,579.1c-14.3-28.7-24.6-59.9-30-92.6"/>
	<path class="st2" d="M511.5,652.7c-19.8-22-36.7-46.8-50-73.6"/>
	<path class="st2" d="M688.3,755c-69.5-14.7-131-51.4-176.8-102.3"/>
</g>
<g id="Layer_6">
	<path class="st2" d="M594.2,398.6c22.5-4.8,45.9-7.4,69.8-7.4c47.2,0,92.1,9.9,132.8,27.8"/>
	<path class="st2" d="M335.7,754.7c-1.1-11-1.7-22.2-1.7-33.5c0-60.8,16.4-117.7,45.1-166.6"/>
	<path class="st2" d="M379.1,554.6c14.4-24.6,32-47.2,52-67.2"/>
	<path class="st2" d="M431.2,487.4c23.7-23.6,51-43.7,81-59.2"/>
	<path class="st2" d="M512.2,428.1c25.6-13.3,53.1-23.3,82-29.5"/>
</g>
<g id="Layer_7">
	<path class="st2" d="M644.8,554.3c28.8,49,45.3,106,45.3,166.9c0,11.4-0.6,22.6-1.7,33.7"/>
	<path class="st2" d="M428.6,398.3c29.4,6.2,57.4,16.4,83.4,29.9"/>
	<path class="st2" d="M227.1,419.1c40.7-17.9,85.7-27.9,133-27.9c23.5,0,46.5,2.5,68.6,7.1"/>
	<path class="st2" d="M512,428.2c29.4,15.3,56.3,34.9,79.7,58"/>
	<path class="st2" d="M591.8,486.2c20.5,20.2,38.4,43.1,53,68.1"/>
</g>
<g id="Layer_8">
	<path class="st5" d="M-64,432.2"/>
	<path class="st2" d="M511.1,653.2c-45.5,50.5-106.5,86.8-175.4,101.7"/>
	<path class="st2" d="M511.7,211.8c45.5,50.6,75.5,115.4,82.7,186.9"/>
	<path class="st2" d="M594.4,398.7c1.1,11,1.7,22.2,1.7,33.5c0,18.4-1.5,36.5-4.4,54.1"/>
	<path class="st2" d="M591.6,486.3c-5.4,32.6-15.5,63.5-29.7,92.1"/>
	<path class="st2" d="M562,578.4c-13.5,27.3-30.7,52.4-50.8,74.8"/>
</g>
</svg>
